<?xml version="1.0" encoding="UTF-8" standalone="no"?>
<!DOCTYPE svg PUBLIC "-//W3C//DTD SVG 20010904//EN"
"http://www.w3.org/TR/2001/REC-SVG-20010904/DTD/svg10.dtd">

<svg xmlns="http://www.w3.org/2000/svg"
     viewBox="0 0 1375 1210">
  <path fill="none" stroke="#3a5367" stroke-width="3"
        d="M 464.00,508.00
           C 464.00,508.00 464.00,388.00 684.00,388.00
             903.00,388.00 903.00,508.00 903.00,508.00" />
    
    <path fill="none" stroke="#3a5367" stroke-width="3"
        d="M 671.44,99.02
           C 686.78,97.15 708.76,99.75 723.44,104.60
             753.57,114.54 777.32,131.08 795.41,157.60
             829.27,207.22 825.68,277.69 785.27,322.60
             773.29,335.91 760.37,346.17 744.44,354.34
             723.18,365.23 701.06,368.87 677.44,368.59
             665.85,368.46 651.42,365.26 640.44,361.60
             563.66,335.98 527.27,249.66 560.75,176.60
             573.77,148.16 598.79,123.12 627.44,110.46
             644.04,103.12 653.97,101.55 671.44,99.02 Z" />
    
    <path fill="#698883" stroke="black" stroke-width="0"
        d="M 446.98,470.03
           C 446.98,470.03 490.98,470.03 490.98,470.03
             490.98,470.03 573.98,470.03 573.98,470.03
             573.98,470.03 829.98,470.03 829.98,470.03
             829.98,470.03 912.98,470.03 912.98,470.03
             932.65,470.03 942.95,481.68 942.98,500.93
             942.98,500.93 942.98,717.93 942.98,717.93
             942.98,717.93 942.98,742.93 942.98,742.93
             942.98,759.41 943.45,776.52 923.98,782.49
             919.34,783.92 916.73,783.93 911.98,783.93
             911.98,783.93 536.98,783.93 536.98,783.93
             536.98,783.93 453.98,783.93 453.98,783.93
             434.31,783.84 424.01,772.19 423.98,752.93
             423.98,752.93 423.98,538.93 423.98,538.93
             423.98,538.93 423.98,511.93 423.98,511.93
             423.98,496.66 422.37,482.34 437.98,473.46
             440.98,471.76 443.68,471.13 446.98,470.03 Z" />
    
    <path fill="#cda37d" stroke="black" stroke-width="0"
        d="M 129.00,824.00
           C 129.00,824.00 1364.00,824.00 1364.00,824.00
             1364.00,824.00 1364.00,1228.00 1364.00,1228.00
             1364.00,1228.00 129.00,1228.00 129.00,1228.00
             129.00,1228.00 129.00,824.00 129.00,824.00 Z" />
    
    <path fill="#ad8766" stroke="black" stroke-width="0"
        d="M 117.00,783.99
           C 117.00,783.99 1376.00,783.99 1376.00,783.99
             1376.00,783.99 1376.00,828.99 1376.00,828.99
             1376.00,828.99 117.00,828.99 117.00,828.99
             117.00,828.99 117.00,783.99 117.00,783.99 Z" />
        
    <path fill="url(#folha1)" stroke="black" stroke-width="0"
        d="M 253.67,658.17
           C 253.67,658.17 210.86,672.56 182.17,648.67
             158.61,629.05 182.92,608.29 166.42,586.79
             158.42,568.67 102.67,585.67 78.67,542.67
             47.67,492.17 102.79,497.36 101.67,485.67
             103.17,398.17 149.49,466.35 158.67,472.17
             176.17,479.17 190.16,456.02 202.67,468.67
             210.84,476.94 209.73,515.93 216.17,527.17
             223.80,540.50 252.52,536.86 258.67,551.17
             276.42,592.44 265.06,652.61 265.17,652.67
             266.17,653.17 253.67,658.17 253.67,658.17M 150.00,640.00" />
    
    <path fill="none" stroke="url(#pau)" stroke-width="2"
        d="M 141.00,511.50
           C 141.00,511.50 181.47,534.47 211.50,572.00
             238.29,605.49 255.00,654.00 255.00,654.00" />
    
    <path fill="url(#folha2)" stroke="black" stroke-width="0"
        d="M 263.17,665.50
           C 263.17,665.50 202.67,630.75 222.17,564.75
             232.67,542.00 244.31,548.96 267.67,545.00
             287.17,540.00 267.33,478.67 303.17,442.00
             342.67,406.67 340.67,462.00 362.67,464.00
             370.67,466.67 440.33,397.67 466.00,443.00
             479.00,492.67 425.11,483.49 420.17,497.50
             446.97,507.95 451.94,521.36 435.03,537.91
             410.12,555.91 354.48,538.45 341.76,556.45
             328.56,574.58 373.99,600.21 366.12,619.36
             351.50,654.97 280.12,668.82 280.12,668.82
             280.12,668.82 263.03,665.73 263.03,665.73" />
    
    <path fill="#e4b996" stroke="black" stroke-width="0"
        d="M 197.00,675.99
           C 197.00,675.99 304.00,675.99 304.00,675.99
             304.00,675.99 299.00,783.99 299.00,783.99
             299.00,783.99 202.00,783.99 202.00,783.99
             202.00,783.99 197.00,675.99 197.00,675.99 Z" />
    
    <path fill="#c29269" stroke="black" stroke-width="0"
        d="M 192.00,666.00
           C 192.00,666.00 309.00,666.00 309.00,666.00
             309.00,666.00 309.00,697.00 309.00,697.00
             309.00,697.00 192.00,697.00 192.00,697.00
             192.00,697.00 192.00,666.00 192.00,666.00 Z" />
        
    <path fill="#5d8790" stroke="black" stroke-width="0"
        d="M 1096.00,779.00
           C 1105.52,779.00 1304.94,779.00 1327.00,779.00
             1329.00,779.00 1329.00,749.00 1327.00,749.00
             1317.55,749.00 1110.36,749.00 1096.00,749.00
             1096.00,747.76 1096.00,744.00 1096.00,744.00
             1096.00,744.00 1327.00,744.00 1327.00,744.00
             1327.03,743.96 1327.94,744.02 1329.00,744.00
             1335.00,744.00 1335.00,750.37 1335.00,764.00
             1335.00,777.60 1335.00,784.00 1329.00,784.00
             1327.87,784.00 1327.00,784.00 1327.00,784.00
             1327.00,784.00 1096.00,784.00 1096.00,784.00
             1096.00,784.00 1096.00,780.35 1096.00,779.00 Z" />
    
    <path fill="#d8d0b5" stroke="black" stroke-width="0"
        d="M 1100.00,749.00
           C 1100.00,749.00 1329.00,749.00 1329.00,749.00
             1329.00,749.00 1329.00,780.00 1329.00,780.00
             1329.00,780.00 1100.00,780.00 1100.00,780.00
             1100.00,780.00 1100.00,749.00 1100.00,749.00 Z" />
    
    <path fill="#80aa6b" stroke="black" stroke-width="0"
        d="M 1117.00,739.00
           C 1126.52,739.00 1325.94,739.00 1348.00,739.00
             1350.00,739.00 1350.00,709.00 1348.00,709.00
             1338.55,709.00 1131.36,709.00 1117.00,709.00
             1117.00,707.76 1117.00,704.00 1117.00,704.00
             1117.00,704.00 1348.00,704.00 1348.00,704.00
             1348.03,703.96 1348.94,704.02 1350.00,704.00
             1356.00,704.00 1356.00,710.37 1356.00,724.00
             1356.00,737.60 1356.00,744.00 1350.00,744.00
             1348.87,744.00 1348.00,744.00 1348.00,744.00
             1348.00,744.00 1117.00,744.00 1117.00,744.00
             1117.00,744.00 1117.00,740.35 1117.00,739.00 Z" />
    
    <path fill="#d8d0b5" stroke="black" stroke-width="0"
        d="M 1121.25,708.44
           C 1121.25,708.44 1350.25,708.44 1350.25,708.44
             1350.25,708.44 1350.25,739.44 1350.25,739.44
             1350.25,739.44 1121.25,739.44 1121.25,739.44
             1121.25,739.44 1121.25,708.44 1121.25,708.44 Z" />
    
    <path fill="#dda03e" stroke="black" stroke-width="0"
        d="M 1081.62,699.00
           C 1091.15,699.00 1290.56,699.00 1312.62,699.00
             1314.62,699.00 1314.62,669.00 1312.62,669.00
             1303.17,669.00 1095.99,669.00 1081.62,669.00
             1081.62,667.76 1081.62,664.00 1081.62,664.00
             1081.62,664.00 1312.62,664.00 1312.62,664.00
             1312.66,663.96 1313.56,664.02 1314.62,664.00
             1320.62,664.00 1320.62,670.37 1320.62,684.00
             1320.62,697.60 1320.62,704.00 1314.62,704.00
             1313.49,704.00 1312.62,704.00 1312.62,704.00
             1312.62,704.00 1081.62,704.00 1081.62,704.00
             1081.62,704.00 1081.62,700.35 1081.62,699.00 Z" />
    
    <path fill="#d8d0b5" stroke="black" stroke-width="0"
        d="M 1085.55,668.27
           C 1085.55,668.27 1314.55,668.27 1314.55,668.27
             1314.55,668.27 1314.55,699.27 1314.55,699.27
             1314.55,699.27 1085.55,699.27 1085.55,699.27
             1085.55,699.27 1085.55,668.27 1085.55,668.27 Z" />
    
    <path fill="#A3B8A3" stroke="black" stroke-width="0"
        d="M 973.09,702.55
           C 973.09,702.55 983.73,705.73 983.73,705.73
             983.73,705.73 1017.23,614.23 1017.23,614.23
             1017.23,614.23 1017.96,613.66 1012.66,611.48
             1007.76,609.48 1007.73,610.48 1007.73,610.48
             1007.73,610.48 973.27,702.36 973.27,702.36" />
    
    <path fill="#5B665B" stroke="black" stroke-width="0"
        d="M 960.18,716.91
           C 960.18,716.91 970.82,720.09 970.82,720.09
             970.82,720.09 1004.32,628.59 1004.32,628.59
             1004.32,628.59 1005.05,628.03 999.76,625.84
             994.85,623.84 994.82,624.84 994.82,624.84
             994.82,624.84 960.36,716.73 960.36,716.73" />
    
    <path fill="#8EA997" stroke="black" stroke-width="0"
        d="M 891.55,666.00
           C 891.55,666.00 999.05,666.00 999.05,666.00
             999.05,666.00 995.05,784.00 995.05,784.00
             995.05,784.00 895.55,784.00 895.55,784.00
             895.55,784.00 891.55,666.00 891.55,666.00 Z" />   
    
    <linearGradient id="folha1" x1="0%" y1="0%" x2="0%" y2="100%">
        <stop offset="0%" stop-color="#a5cb84" />
        <stop offset="100%" stop-color="#698883" />
    </linearGradient>
    
    <linearGradient id="folha2" x1="0%" y1="0%" x2="0%" y2="100%">
        <stop offset="0%" stop-color="#b1d88c" />
        <stop offset="100%" stop-color="#7ea29a" />
    </linearGradient>
    
    <linearGradient id="pau" x1="0%" y1="0%" x2="0%" y2="100%">
        <stop offset="0%" stop-color="transparent" />
        <stop offset="100%" stop-color="#636363" />
    </linearGradient>
</svg>