<?xml version="1.0" encoding="UTF-8" standalone="no"?>
<!DOCTYPE svg PUBLIC "-//W3C//DTD SVG 20010904//EN"
"http://www.w3.org/TR/2001/REC-SVG-20010904/DTD/svg10.dtd">

<svg xmlns="http://www.w3.org/2000/svg"
     viewBox="65 400 400 380">
    
    <path fill="url(#folha1)" stroke="black" stroke-width="0"
        d="M 253.67,658.17
           C 253.67,658.17 210.86,672.56 182.17,648.67
             158.61,629.05 182.92,608.29 166.42,586.79
             158.42,568.67 102.67,585.67 78.67,542.67
             47.67,492.17 102.79,497.36 101.67,485.67
             103.17,398.17 149.49,466.35 158.67,472.17
             176.17,479.17 190.16,456.02 202.67,468.67
             210.84,476.94 209.73,515.93 216.17,527.17
             223.80,540.50 252.52,536.86 258.67,551.17
             276.42,592.44 265.06,652.61 265.17,652.67
             266.17,653.17 253.67,658.17 253.67,658.17M 150.00,640.00" />
    
    <path fill="none" stroke="url(#pau)" stroke-width="2"
        d="M 141.00,511.50
           C 141.00,511.50 181.47,534.47 211.50,572.00
             238.29,605.49 255.00,654.00 255.00,654.00" />
    
    <path fill="url(#folha2)" stroke="black" stroke-width="0"
        d="M 263.17,665.50
           C 263.17,665.50 202.67,630.75 222.17,564.75
             232.67,542.00 244.31,548.96 267.67,545.00
             287.17,540.00 267.33,478.67 303.17,442.00
             342.67,406.67 340.67,462.00 362.67,464.00
             370.67,466.67 440.33,397.67 466.00,443.00
             479.00,492.67 425.11,483.49 420.17,497.50
             446.97,507.95 451.94,521.36 435.03,537.91
             410.12,555.91 354.48,538.45 341.76,556.45
             328.56,574.58 373.99,600.21 366.12,619.36
             351.50,654.97 280.12,668.82 280.12,668.82
             280.12,668.82 263.03,665.73 263.03,665.73" />
    
    <path fill="#e4b996" stroke="black" stroke-width="0"
        d="M 197.00,675.99
           C 197.00,675.99 304.00,675.99 304.00,675.99
             304.00,675.99 299.00,783.99 299.00,783.99
             299.00,783.99 202.00,783.99 202.00,783.99
             202.00,783.99 197.00,675.99 197.00,675.99 Z" />
    
    <path fill="#c29269" stroke="black" stroke-width="0"
        d="M 192.00,666.00
           C 192.00,666.00 309.00,666.00 309.00,666.00
             309.00,666.00 309.00,697.00 309.00,697.00
             309.00,697.00 192.00,697.00 192.00,697.00
             192.00,697.00 192.00,666.00 192.00,666.00 Z" />

    <linearGradient id="folha1" x1="0%" y1="0%" x2="0%" y2="100%">
        <stop offset="0%" stop-color="#a5cb84" />
        <stop offset="100%" stop-color="#698883" />
    </linearGradient>
    
    <linearGradient id="folha2" x1="0%" y1="0%" x2="0%" y2="100%">
        <stop offset="0%" stop-color="#b1d88c" />
        <stop offset="100%" stop-color="#7ea29a" />
    </linearGradient>
    
    <linearGradient id="pau" x1="0%" y1="0%" x2="0%" y2="100%">
        <stop offset="0%" stop-color="transparent" />
        <stop offset="100%" stop-color="#636363" />
    </linearGradient>  
</svg>